<svg width="50" height="50" viewBox="0 0 50 50" fill="none" xmlns="http://www.w3.org/2000/svg">
<path d="M24.9375 10C16.1494 10 9 16.308 9 24.0625C9 27.3382 10.2964 30.5124 12.6557 33.0282C13.1226 34.9536 12.5559 36.9934 11.1496 38.3996C10.5616 38.9877 10.9774 40 11.8125 40C14.484 40 17.0594 38.9536 18.9728 37.1079C20.8661 37.7835 22.8693 38.125 24.9375 38.125C33.7256 38.125 41 31.817 41 24.0625C41 16.308 33.7256 10 24.9375 10ZM17.5625 26.875C16.0116 26.875 14.75 25.6134 14.75 24.0625C14.75 22.5116 16.0116 21.25 17.5625 21.25C19.1134 21.25 20.375 22.5116 20.375 24.0625C20.375 25.6134 19.1134 26.875 17.5625 26.875ZM25.0625 26.875C23.5116 26.875 22.25 25.6134 22.25 24.0625C22.25 22.5116 23.5116 21.25 25.0625 21.25C26.6134 21.25 27.875 22.5116 27.875 24.0625C27.875 25.6134 26.6134 26.875 25.0625 26.875ZM32.5625 26.875C31.0116 26.875 29.75 25.6134 29.75 24.0625C29.75 22.5116 31.0116 21.25 32.5625 21.25C34.1134 21.25 35.375 22.5116 35.375 24.0625C35.375 25.6134 34.1134 26.875 32.5625 26.875Z" fill="#D8D3CC"/>
</svg>
