<svg width="47" height="48" viewBox="0 0 47 48" fill="none" xmlns="http://www.w3.org/2000/svg">
<path d="M0 12C0 5.37258 5.37258 0 12 0H35C41.6274 0 47 5.37258 47 12V36C47 42.6274 41.6274 48 35 48H12C5.37258 48 0 42.6274 0 36V12Z" fill="#0F0F0F"/>
<path d="M33.5 24C33.5 18.4771 29.0229 14 23.5 14C17.9771 14 13.5 18.4771 13.5 24C13.5 28.9912 17.1568 33.1283 21.9375 33.8785V26.8906H19.3984V24H21.9375V21.7969C21.9375 19.2906 23.4305 17.9062 25.7146 17.9062C26.8084 17.9062 27.9531 18.1016 27.9531 18.1016V20.5625H26.6922C25.45 20.5625 25.0625 21.3334 25.0625 22.125V24H27.8359L27.3926 26.8906H25.0625V33.8785C29.8432 33.1283 33.5 28.9912 33.5 24Z" fill="#D8D3CC"/>
</svg>
