<svg width="50" height="50" viewBox="0 0 50 50" fill="none" xmlns="http://www.w3.org/2000/svg">
<path d="M25.5 14.4295C22.83 14.4295 20.2199 15.2086 17.9998 16.6684C15.7797 18.1282 14.0494 20.2031 13.0276 22.6307C12.0058 25.0582 11.7385 27.7295 12.2594 30.3066C12.7803 32.8836 14.0661 35.2509 15.9541 37.1088C17.8421 38.9668 20.2475 40.2321 22.8663 40.7447C25.485 41.2573 28.1994 40.9942 30.6662 39.9887C33.133 38.9832 35.2414 37.2804 36.7248 35.0956C38.2082 32.9109 39 30.3423 39 27.7147C38.9961 24.1924 37.5725 20.8155 35.0416 18.3249C32.5107 15.8343 29.0792 14.4333 25.5 14.4295ZM31.9207 22.9622L26.2962 28.4973C26.1118 28.6772 25.8698 28.7888 25.6113 28.8134C25.3527 28.8379 25.0935 28.7737 24.8775 28.6318C24.6616 28.4898 24.502 28.2788 24.426 28.0344C24.3499 27.79 24.362 27.5273 24.4602 27.2906C24.5166 27.1562 24.5993 27.034 24.7038 26.9312L30.3293 21.3951C30.5138 21.2149 30.7559 21.1029 31.0147 21.0783C31.2735 21.0537 31.533 21.118 31.7491 21.2601C31.9652 21.4023 32.1248 21.6137 32.2006 21.8584C32.2765 22.1031 32.264 22.3661 32.1653 22.6028C32.1089 22.7372 32.0251 22.8593 31.9207 22.9622ZM21 11.1076C20.9999 10.9621 21.0289 10.818 21.0854 10.6836C21.1419 10.5491 21.2248 10.427 21.3294 10.3241C21.4339 10.2212 21.558 10.1396 21.6946 10.084C21.8313 10.0284 21.9777 9.99986 22.1255 10H28.8745C29.1728 10 29.459 10.1166 29.67 10.3243C29.8809 10.5319 29.9995 10.8135 29.9995 11.1071C29.9995 11.4007 29.8809 11.6823 29.67 11.8899C29.459 12.0976 29.1728 12.2142 28.8745 12.2142H22.1255C21.9778 12.2143 21.8314 12.1858 21.6949 12.1303C21.5583 12.0747 21.4343 11.9932 21.3297 11.8905C21.2252 11.7877 21.1423 11.6657 21.0857 11.5313C21.0291 11.397 21 11.253 21 11.1076Z" fill="#D8D3CC"/>
</svg>
