<svg width="46" height="48" viewBox="0 0 46 48" fill="none" xmlns="http://www.w3.org/2000/svg">
<path d="M0 12C0 5.37258 5.37258 0 12 0H34C40.6274 0 46 5.37258 46 12V36C46 42.6274 40.6274 48 34 48H12C5.37258 48 0 42.6274 0 36V12Z" fill="#0F0F0F"/>
<path d="M28.0002 13.9985H18.0002C15.2402 13.9985 13.0002 16.2385 13.0002 18.9985V28.9985C13.0002 31.7585 15.2402 33.9985 18.0002 33.9985H28.0002C30.7602 33.9985 33.0002 31.7585 33.0002 28.9985V18.9985C33.0002 16.2385 30.7602 13.9985 28.0002 13.9985ZM23.0002 28.9985C20.2402 28.9985 18.0002 26.7585 18.0002 23.9985C18.0002 21.2385 20.2402 18.9985 23.0002 18.9985C25.7602 18.9985 28.0002 21.2385 28.0002 23.9985C28.0002 26.7585 25.7602 28.9985 23.0002 28.9985ZM28.3502 19.6185C27.8002 19.6185 27.3502 19.1685 27.3502 18.6185C27.3502 18.0685 27.8002 17.6185 28.3502 17.6185C28.9002 17.6185 29.3502 18.0685 29.3502 18.6185C29.3502 19.1685 28.9002 19.6185 28.3502 19.6185Z" fill="#D8D3CC"/>
<path d="M23.0002 26.9985C24.657 26.9985 26.0002 25.6554 26.0002 23.9985C26.0002 22.3417 24.657 20.9985 23.0002 20.9985C21.3433 20.9985 20.0002 22.3417 20.0002 23.9985C20.0002 25.6554 21.3433 26.9985 23.0002 26.9985Z" fill="#D8D3CC"/>
</svg>
