<svg width="50" height="50" viewBox="0 0 50 50" fill="none" xmlns="http://www.w3.org/2000/svg">
<path d="M41.8328 37.0227H40.6656V27.4773C40.6684 26.762 40.4242 26.0723 39.9826 25.5488C39.7716 25.2985 39.5164 25.0985 39.2328 24.9611C38.9492 24.8237 38.6431 24.7519 38.3333 24.75H32.4995V12.4773C32.5023 11.762 32.258 11.0723 31.8165 10.5488C31.6054 10.2983 31.35 10.0982 31.0662 9.96084C30.7824 9.82346 30.476 9.75171 30.1661 9.75H20.8328C20.2135 9.75 19.6206 10.0373 19.1824 10.5488C18.7409 11.0723 18.4966 11.762 18.4995 12.4773V17.9318H12.6656C12.0474 17.9318 11.4533 18.2191 11.0163 18.7306C10.5748 19.2541 10.3305 19.9438 10.3333 20.6591V37.0227H9.16613C8.85648 37.0227 8.56001 37.1658 8.3415 37.4227C8.12085 37.6843 7.99874 38.0289 8.00001 38.3864C8.00001 38.7476 8.12189 39.0942 8.3404 39.35C8.56001 39.607 8.85648 39.75 9.16613 39.75H41.8328C42.1424 39.75 42.4389 39.607 42.6574 39.35C42.877 39.0955 43 38.7476 43 38.3864C43.001 38.0287 42.8785 37.6842 42.6574 37.4227C42.5521 37.2973 42.4246 37.197 42.2827 37.1282C42.1409 37.0594 41.9877 37.0235 41.8328 37.0227ZM18.4995 37.0227H12.6656V20.6591H18.4995V37.0227ZM27.2497 26.1136C27.2497 26.4748 27.1267 26.8215 26.9082 27.0773C26.6886 27.3342 26.3922 27.4773 26.0825 27.4773C25.7729 27.4773 25.4764 27.3342 25.2579 27.0773C25.0372 26.8157 24.9151 26.4711 24.9164 26.1136V21.1876L24.7012 21.2712C24.5564 21.3278 24.4026 21.3505 24.2494 21.3377C24.0963 21.325 23.9472 21.2772 23.8118 21.1973C23.6732 21.1158 23.5507 21.0045 23.4516 20.87C23.3006 20.6609 23.2053 20.4095 23.1766 20.144C23.1479 19.8785 23.1869 19.6094 23.2891 19.367C23.3583 19.207 23.4527 19.0639 23.568 18.9476C23.6824 18.8312 23.8169 18.7414 23.9633 18.6833L25.7136 18.0021C25.8889 17.9328 26.0774 17.9136 26.2613 17.9462C26.4452 17.9788 26.6186 18.0623 26.7655 18.1888C26.9148 18.3149 27.0367 18.4821 27.1213 18.6736C27.2058 18.8664 27.2497 19.0797 27.2497 19.2955V26.1136ZM38.3322 37.0227H32.4995V27.4773H38.3333L38.3322 37.0227Z" fill="#D8D3CC"/>
</svg>
