<svg width="47" height="48" viewBox="0 0 47 48" fill="none" xmlns="http://www.w3.org/2000/svg">
<path d="M0 12C0 5.37258 5.37258 0 12 0H35C41.6274 0 47 5.37258 47 12V36C47 42.6274 41.6274 48 35 48H12C5.37258 48 0 42.6274 0 36V12Z" fill="#0F0F0F"/>
<path d="M32.0195 14H14.9766C14.1602 14 13.5 14.6445 13.5 15.4414V32.5547C13.5 33.3516 14.1602 34 14.9766 34H32.0195C32.8359 34 33.5 33.3516 33.5 32.5586V15.4414C33.5 14.6445 32.8359 14 32.0195 14ZM19.4336 31.043H16.4648V21.4961H19.4336V31.043ZM17.9492 20.1953C16.9961 20.1953 16.2266 19.4258 16.2266 18.4766C16.2266 17.5273 16.9961 16.7578 17.9492 16.7578C18.8984 16.7578 19.668 17.5273 19.668 18.4766C19.668 19.4219 18.8984 20.1953 17.9492 20.1953ZM30.543 31.043H27.5781V26.4023C27.5781 25.2969 27.5586 23.8711 26.0352 23.8711C24.4922 23.8711 24.2578 25.0781 24.2578 26.3242V31.043H21.2969V21.4961H24.1406V22.8008H24.1797C24.5742 22.0508 25.543 21.2578 26.9844 21.2578C29.9883 21.2578 30.543 23.2344 30.543 25.8047V31.043Z" fill="#D8D3CC"/>
</svg>
