<svg width="100" height="100" viewBox="0 0 100 100" fill="none" xmlns="http://www.w3.org/2000/svg">
<rect width="100" height="100" rx="14" fill="#0F0F0F"/>
<mask id="path-2-inside-1_1_549" fill="white">
<path d="M43.3223 39.84L43.4823 38.6C43.4823 37.3733 43.0023 36.5867 42.0423 36.24C41.2957 36 40.7223 35.88 40.3223 35.88H40.2823C39.4823 35.88 38.789 36.0133 38.2023 36.28C37.6157 36.52 37.189 36.8267 36.9223 37.2C36.3623 37.9733 36.0423 38.7867 35.9623 39.64C35.9623 40.6533 36.4157 41.5333 37.3223 42.28C38.229 43 39.3223 43.64 40.6023 44.2C41.909 44.7333 43.2023 45.32 44.4823 45.96C45.789 46.6 46.8957 47.52 47.8023 48.72C48.709 49.92 49.1623 51.36 49.1623 53.04C49.1623 56.32 48.1223 58.7733 46.0423 60.4C43.989 62.0267 41.6423 62.84 39.0023 62.84C36.389 62.84 34.2157 62.2533 32.4823 61.08C30.7757 59.88 29.9223 58.28 29.9223 56.28V56.24C29.9223 55.2533 30.069 54.4 30.3623 53.68C30.6823 52.9333 31.0557 52.3867 31.4823 52.04C32.3623 51.32 33.1623 50.9333 33.8823 50.88L34.3623 50.84C35.109 50.84 35.789 51.0267 36.4023 51.4C37.0157 51.7467 37.3223 52.24 37.3223 52.88C37.3223 53.2 37.149 53.4667 36.8023 53.68C36.4557 53.8933 36.149 54.2133 35.8823 54.64C35.6423 55.0667 35.509 55.4267 35.4823 55.72L35.4023 56.16C35.4023 57.7867 36.149 58.8667 37.6423 59.4C38.1757 59.5867 38.6023 59.68 38.9223 59.68C40.389 59.68 41.5623 59.24 42.4423 58.36C43.349 57.48 43.8023 56.36 43.8023 55C43.8023 53.3733 43.109 52.0533 41.7223 51.04C40.6823 50.2933 39.549 49.6667 38.3223 49.16C37.1223 48.6533 36.309 48.2933 35.8823 48.08C35.4557 47.8667 35.0023 47.6133 34.5223 47.32C34.0423 47.0267 33.509 46.6133 32.9223 46.08C31.6423 44.96 31.0023 43.4533 31.0023 41.56C31.0023 39.64 31.5223 38.0267 32.5623 36.72C34.429 34.3467 37.229 33.16 40.9623 33.16C42.9357 33.16 44.6023 33.5467 45.9623 34.32C47.3223 35.0667 48.0023 36.1067 48.0023 37.44C48.0023 38.4 47.7223 39.2 47.1623 39.84C46.629 40.48 45.9357 40.8 45.0823 40.8C44.6823 40.8 44.2823 40.72 43.8823 40.56C43.509 40.4 43.3223 40.16 43.3223 39.84ZM60.073 45.24C60.1796 45.24 60.3796 45.3467 60.673 45.56C60.9663 45.7733 61.273 45.88 61.593 45.88H61.633C62.5396 45.88 63.2596 45.52 63.793 44.8C64.3263 44.08 64.6196 43.36 64.673 42.64L64.793 41.56C64.793 40.5467 64.633 39.68 64.313 38.96C64.0196 38.2133 63.673 37.6667 63.273 37.32C62.873 36.9467 62.4063 36.6667 61.873 36.48C61.2063 36.2133 60.4996 36.08 59.753 36.08C59.033 36.08 58.4463 36.16 57.993 36.32C57.5396 36.4533 57.2863 36.5867 57.233 36.72L57.193 36.96C56.953 40.56 56.833 43.7867 56.833 46.64C56.833 49.4667 56.873 51.9067 56.953 53.96C57.0596 56.0133 57.153 57.6 57.233 58.72C57.3396 59.8133 57.393 60.4133 57.393 60.52C57.393 61.1867 56.8063 61.72 55.633 62.12C54.4596 62.52 53.2996 62.72 52.153 62.72C51.6196 62.72 51.353 62.5867 51.353 62.32C51.353 62.24 51.393 62.0533 51.473 61.76C51.9796 60.5867 52.233 55.1333 52.233 45.4C52.233 39.6667 51.8463 36.3867 51.073 35.56C50.913 35.4 50.833 35.24 50.833 35.08C50.833 34.8933 51.0196 34.6933 51.393 34.48C51.793 34.2667 52.8863 34.0267 54.673 33.76C56.4596 33.4667 58.353 33.32 60.353 33.32C63.4996 33.32 65.8596 34.1733 67.433 35.88C69.033 37.5867 69.833 39.6267 69.833 42C69.833 44.3467 69.1796 46.3867 67.873 48.12C66.593 49.8533 64.913 50.72 62.833 50.72C62.1663 50.72 61.4996 50.6 60.833 50.36C59.4996 49.88 58.833 48.88 58.833 47.36C58.833 47.04 58.9396 46.6133 59.153 46.08C59.3663 45.52 59.673 45.24 60.073 45.24Z"/>
</mask>
<path d="M43.3223 39.84L43.4823 38.6C43.4823 37.3733 43.0023 36.5867 42.0423 36.24C41.2957 36 40.7223 35.88 40.3223 35.88H40.2823C39.4823 35.88 38.789 36.0133 38.2023 36.28C37.6157 36.52 37.189 36.8267 36.9223 37.2C36.3623 37.9733 36.0423 38.7867 35.9623 39.64C35.9623 40.6533 36.4157 41.5333 37.3223 42.28C38.229 43 39.3223 43.64 40.6023 44.2C41.909 44.7333 43.2023 45.32 44.4823 45.96C45.789 46.6 46.8957 47.52 47.8023 48.72C48.709 49.92 49.1623 51.36 49.1623 53.04C49.1623 56.32 48.1223 58.7733 46.0423 60.4C43.989 62.0267 41.6423 62.84 39.0023 62.84C36.389 62.84 34.2157 62.2533 32.4823 61.08C30.7757 59.88 29.9223 58.28 29.9223 56.28V56.24C29.9223 55.2533 30.069 54.4 30.3623 53.68C30.6823 52.9333 31.0557 52.3867 31.4823 52.04C32.3623 51.32 33.1623 50.9333 33.8823 50.88L34.3623 50.84C35.109 50.84 35.789 51.0267 36.4023 51.4C37.0157 51.7467 37.3223 52.24 37.3223 52.88C37.3223 53.2 37.149 53.4667 36.8023 53.68C36.4557 53.8933 36.149 54.2133 35.8823 54.64C35.6423 55.0667 35.509 55.4267 35.4823 55.72L35.4023 56.16C35.4023 57.7867 36.149 58.8667 37.6423 59.4C38.1757 59.5867 38.6023 59.68 38.9223 59.68C40.389 59.68 41.5623 59.24 42.4423 58.36C43.349 57.48 43.8023 56.36 43.8023 55C43.8023 53.3733 43.109 52.0533 41.7223 51.04C40.6823 50.2933 39.549 49.6667 38.3223 49.16C37.1223 48.6533 36.309 48.2933 35.8823 48.08C35.4557 47.8667 35.0023 47.6133 34.5223 47.32C34.0423 47.0267 33.509 46.6133 32.9223 46.08C31.6423 44.96 31.0023 43.4533 31.0023 41.56C31.0023 39.64 31.5223 38.0267 32.5623 36.72C34.429 34.3467 37.229 33.16 40.9623 33.16C42.9357 33.16 44.6023 33.5467 45.9623 34.32C47.3223 35.0667 48.0023 36.1067 48.0023 37.44C48.0023 38.4 47.7223 39.2 47.1623 39.84C46.629 40.48 45.9357 40.8 45.0823 40.8C44.6823 40.8 44.2823 40.72 43.8823 40.56C43.509 40.4 43.3223 40.16 43.3223 39.84ZM60.073 45.24C60.1796 45.24 60.3796 45.3467 60.673 45.56C60.9663 45.7733 61.273 45.88 61.593 45.88H61.633C62.5396 45.88 63.2596 45.52 63.793 44.8C64.3263 44.08 64.6196 43.36 64.673 42.64L64.793 41.56C64.793 40.5467 64.633 39.68 64.313 38.96C64.0196 38.2133 63.673 37.6667 63.273 37.32C62.873 36.9467 62.4063 36.6667 61.873 36.48C61.2063 36.2133 60.4996 36.08 59.753 36.08C59.033 36.08 58.4463 36.16 57.993 36.32C57.5396 36.4533 57.2863 36.5867 57.233 36.72L57.193 36.96C56.953 40.56 56.833 43.7867 56.833 46.64C56.833 49.4667 56.873 51.9067 56.953 53.96C57.0596 56.0133 57.153 57.6 57.233 58.72C57.3396 59.8133 57.393 60.4133 57.393 60.52C57.393 61.1867 56.8063 61.72 55.633 62.12C54.4596 62.52 53.2996 62.72 52.153 62.72C51.6196 62.72 51.353 62.5867 51.353 62.32C51.353 62.24 51.393 62.0533 51.473 61.76C51.9796 60.5867 52.233 55.1333 52.233 45.4C52.233 39.6667 51.8463 36.3867 51.073 35.56C50.913 35.4 50.833 35.24 50.833 35.08C50.833 34.8933 51.0196 34.6933 51.393 34.48C51.793 34.2667 52.8863 34.0267 54.673 33.76C56.4596 33.4667 58.353 33.32 60.353 33.32C63.4996 33.32 65.8596 34.1733 67.433 35.88C69.033 37.5867 69.833 39.6267 69.833 42C69.833 44.3467 69.1796 46.3867 67.873 48.12C66.593 49.8533 64.913 50.72 62.833 50.72C62.1663 50.72 61.4996 50.6 60.833 50.36C59.4996 49.88 58.833 48.88 58.833 47.36C58.833 47.04 58.9396 46.6133 59.153 46.08C59.3663 45.52 59.673 45.24 60.073 45.24Z" fill="#D8D3CC"/>
<path d="M43.3223 39.84L42.3306 39.712L42.3223 39.7757V39.84H43.3223ZM43.4823 38.6L44.4741 38.728L44.4823 38.6642V38.6H43.4823ZM42.0423 36.24L42.382 35.2994L42.3653 35.2934L42.3484 35.288L42.0423 36.24ZM38.2023 36.28L38.581 37.2055L38.5987 37.1983L38.6161 37.1904L38.2023 36.28ZM36.9223 37.2L37.7323 37.7865L37.7361 37.7812L36.9223 37.2ZM35.9623 39.64L34.9667 39.5467L34.9623 39.5932V39.64H35.9623ZM37.3223 42.28L36.6866 43.0519L36.6935 43.0576L36.7005 43.0631L37.3223 42.28ZM40.6023 44.2L40.2015 45.1162L40.2129 45.1211L40.2244 45.1258L40.6023 44.2ZM44.4823 45.96L44.0351 46.8545L44.0425 46.8581L44.4823 45.96ZM47.8023 48.72L47.0045 49.3228L47.8023 48.72ZM46.0423 60.4L45.4263 59.6123L45.4214 59.6162L46.0423 60.4ZM32.4823 61.08L31.9072 61.898L31.9144 61.9031L31.9218 61.9081L32.4823 61.08ZM30.3623 53.68L29.4432 53.2861L29.4397 53.2944L29.4363 53.3027L30.3623 53.68ZM31.4823 52.04L32.1129 52.8161L32.1156 52.814L31.4823 52.04ZM33.8823 50.88L33.9562 51.8773L33.9654 51.8765L33.8823 50.88ZM34.3623 50.84V49.84H34.3208L34.2793 49.8435L34.3623 50.84ZM36.4023 51.4L35.8824 52.2542L35.8962 52.2626L35.9103 52.2706L36.4023 51.4ZM36.8023 53.68L36.2782 52.8283L36.2782 52.8283L36.8023 53.68ZM35.8823 54.64L35.0343 54.11L35.0221 54.1296L35.0108 54.1497L35.8823 54.64ZM35.4823 55.72L36.4662 55.8989L36.4742 55.855L36.4782 55.8105L35.4823 55.72ZM35.4023 56.16L34.4185 55.9811L34.4023 56.0698V56.16H35.4023ZM37.6423 59.4L37.306 60.3418L37.312 60.3439L37.6423 59.4ZM42.4423 58.36L41.7459 57.6424L41.7405 57.6476L41.7352 57.6529L42.4423 58.36ZM41.7223 51.04L42.3124 50.2326L42.3056 50.2277L41.7223 51.04ZM38.3223 49.16L37.9334 50.0813L37.9406 50.0843L38.3223 49.16ZM35.8823 48.08L36.3296 47.1856H36.3296L35.8823 48.08ZM34.5223 47.32L34.0009 48.1733L34.5223 47.32ZM32.9223 46.08L33.595 45.3401L33.588 45.3337L33.5808 45.3274L32.9223 46.08ZM32.5623 36.72L33.3448 37.3428L33.3484 37.3382L32.5623 36.72ZM45.9623 34.32L45.468 35.1893L45.4745 35.193L45.4811 35.1966L45.9623 34.32ZM47.1623 39.84L46.4098 39.1815L46.4018 39.1906L46.3941 39.1998L47.1623 39.84ZM43.8823 40.56L43.4884 41.4791L43.4996 41.4839L43.511 41.4885L43.8823 40.56ZM43.3223 39.84L44.3141 39.968L44.4741 38.728L43.4823 38.6L42.4906 38.472L42.3306 39.712L43.3223 39.84ZM43.4823 38.6H44.4823C44.4823 37.862 44.3384 37.1631 43.976 36.5691C43.6045 35.9604 43.0516 35.5413 42.382 35.2994L42.0423 36.24L41.7027 37.1806C41.9931 37.2854 42.1602 37.433 42.2687 37.6109C42.3863 37.8035 42.4823 38.1113 42.4823 38.6H43.4823ZM42.0423 36.24L42.3484 35.288C41.5787 35.0406 40.8837 34.88 40.3223 34.88V35.88V36.88C40.561 36.88 41.0127 36.9594 41.7363 37.192L42.0423 36.24ZM40.3223 35.88V34.88H40.2823V35.88V36.88H40.3223V35.88ZM40.2823 35.88V34.88C39.3731 34.88 38.5326 35.0314 37.7885 35.3696L38.2023 36.28L38.6161 37.1904C39.0455 36.9952 39.5916 36.88 40.2823 36.88V35.88ZM38.2023 36.28L37.8237 35.3545C37.1266 35.6397 36.5192 36.0439 36.1086 36.6188L36.9223 37.2L37.7361 37.7812C37.8588 37.6094 38.1048 37.4003 38.581 37.2055L38.2023 36.28ZM36.9223 37.2L36.1124 36.6135C35.4598 37.5147 35.0652 38.4956 34.9667 39.5467L35.9623 39.64L36.958 39.7333C37.0194 39.0778 37.2649 38.4319 37.7323 37.7865L36.9223 37.2ZM35.9623 39.64H34.9623C34.9623 41.0015 35.5903 42.1491 36.6866 43.0519L37.3223 42.28L37.9581 41.5081C37.241 40.9176 36.9623 40.3052 36.9623 39.64H35.9623ZM37.3223 42.28L36.7005 43.0631C37.687 43.8465 38.8581 44.5284 40.2015 45.1162L40.6023 44.2L41.0032 43.2838C39.7866 42.7516 38.771 42.1535 37.9442 41.4969L37.3223 42.28ZM40.6023 44.2L40.2244 45.1258C41.5073 45.6495 42.7775 46.2256 44.0351 46.8544L44.4823 45.96L44.9296 45.0656C43.6272 44.4144 42.3107 43.8172 40.9802 43.2742L40.6023 44.2ZM44.4823 45.96L44.0425 46.8581C45.2035 47.4267 46.1891 48.2436 47.0045 49.3228L47.8023 48.72L48.6002 48.1172C47.6023 46.7964 46.3745 45.7733 44.9222 45.0619L44.4823 45.96ZM47.8023 48.72L47.0045 49.3228C47.7647 50.329 48.1623 51.5508 48.1623 53.04H49.1623H50.1623C50.1623 51.1692 49.6533 49.511 48.6002 48.1172L47.8023 48.72ZM49.1623 53.04H48.1623C48.1623 56.0945 47.2058 58.2206 45.4263 59.6123L46.0423 60.4L46.6584 61.1877C49.0388 59.3261 50.1623 56.5455 50.1623 53.04H49.1623ZM46.0423 60.4L45.4214 59.6162C43.5462 61.1017 41.4188 61.84 39.0023 61.84V62.84V63.84C41.8659 63.84 44.4318 62.9517 46.6633 61.1838L46.0423 60.4ZM39.0023 62.84V61.84C36.539 61.84 34.5738 61.2882 33.0429 60.2519L32.4823 61.08L31.9218 61.9081C33.8576 63.2185 36.239 63.84 39.0023 63.84V62.84ZM32.4823 61.08L33.0575 60.262C31.6036 59.2397 30.9223 57.9381 30.9223 56.28H29.9223H28.9223C28.9223 58.6219 29.9478 60.5203 31.9072 61.898L32.4823 61.08ZM29.9223 56.28H30.9223V56.24H29.9223H28.9223V56.28H29.9223ZM29.9223 56.24H30.9223C30.9223 55.3493 31.0551 54.63 31.2884 54.0573L30.3623 53.68L29.4363 53.3027C29.0829 54.17 28.9223 55.1574 28.9223 56.24H29.9223ZM30.3623 53.68L31.2815 54.0739C31.5658 53.4104 31.8577 53.0235 32.1129 52.8161L31.4823 52.04L30.8518 51.2639C30.2536 51.7499 29.7988 52.4562 29.4432 53.2861L30.3623 53.68ZM31.4823 52.04L32.1156 52.814C32.9211 52.1549 33.5283 51.909 33.9562 51.8773L33.8823 50.88L33.8085 49.8827C32.7964 49.9577 31.8036 50.4851 30.8491 51.266L31.4823 52.04ZM33.8823 50.88L33.9654 51.8765L34.4454 51.8365L34.3623 50.84L34.2793 49.8435L33.7993 49.8835L33.8823 50.88ZM34.3623 50.84V51.84C34.9333 51.84 35.4322 51.9801 35.8824 52.2542L36.4023 51.4L36.9223 50.5458C36.1459 50.0732 35.2847 49.84 34.3623 49.84V50.84ZM36.4023 51.4L35.9103 52.2706C36.2483 52.4616 36.3223 52.6427 36.3223 52.88H37.3223H38.3223C38.3223 51.8373 37.7831 51.0317 36.8944 50.5294L36.4023 51.4ZM37.3223 52.88H36.3223C36.3223 52.8685 36.3241 52.8495 36.3308 52.8267C36.3376 52.8038 36.3467 52.786 36.3539 52.775C36.3673 52.7544 36.3595 52.7783 36.2782 52.8283L36.8023 53.68L37.3264 54.5317C37.8768 54.193 38.3223 53.6431 38.3223 52.88H37.3223ZM36.8023 53.68L36.2782 52.8283C35.7729 53.1393 35.3638 53.5828 35.0343 54.11L35.8823 54.64L36.7303 55.17C36.9342 54.8438 37.1384 54.6474 37.3264 54.5317L36.8023 53.68ZM35.8823 54.64L35.0108 54.1497C34.7415 54.6284 34.5316 55.1324 34.4865 55.6295L35.4823 55.72L36.4782 55.8105C36.4864 55.7209 36.5431 55.505 36.7539 55.1303L35.8823 54.64ZM35.4823 55.72L34.4985 55.5411L34.4185 55.9811L35.4023 56.16L36.3862 56.3389L36.4662 55.8989L35.4823 55.72ZM35.4023 56.16H34.4023C34.4023 57.1276 34.6259 58.0154 35.1398 58.7587C35.6551 59.5041 36.404 60.0196 37.306 60.3417L37.6423 59.4L37.9787 58.4583C37.3873 58.2471 37.0162 57.9559 36.7849 57.6213C36.5521 57.2846 36.4023 56.8191 36.4023 56.16H35.4023ZM37.6423 59.4L37.312 60.3439C37.8832 60.5438 38.4351 60.68 38.9223 60.68V59.68V58.68C38.7696 58.68 38.4682 58.6296 37.9727 58.4561L37.6423 59.4ZM38.9223 59.68V60.68C40.6033 60.68 42.0487 60.1678 43.1495 59.0671L42.4423 58.36L41.7352 57.6529C41.076 58.3122 40.1748 58.68 38.9223 58.68V59.68ZM42.4423 58.36L43.1388 59.0776C44.2554 57.9939 44.8023 56.6075 44.8023 55H43.8023H42.8023C42.8023 56.1125 42.4426 56.9661 41.7459 57.6424L42.4423 58.36ZM43.8023 55H44.8023C44.8023 53.0339 43.9398 51.4219 42.3124 50.2326L41.7223 51.04L41.1323 51.8474C42.2782 52.6848 42.8023 53.7128 42.8023 55H43.8023ZM41.7223 51.04L42.3056 50.2277C41.2007 49.4344 39.9994 48.7708 38.7041 48.2357L38.3223 49.16L37.9406 50.0843C39.0986 50.5626 40.164 51.1522 41.1391 51.8523L41.7223 51.04ZM38.3223 49.16L38.7113 48.2388C37.5085 47.7309 36.7235 47.3825 36.3296 47.1856L35.8823 48.08L35.4351 48.9744C35.8946 49.2041 36.7362 49.5758 37.9334 50.0812L38.3223 49.16ZM35.8823 48.08L36.3296 47.1856C35.9322 46.9869 35.5038 46.7478 35.0438 46.4667L34.5223 47.32L34.0009 48.1733C34.5009 48.4788 34.9791 48.7464 35.4351 48.9744L35.8823 48.08ZM34.5223 47.32L35.0438 46.4667C34.6345 46.2166 34.1523 45.8467 33.595 45.3401L32.9223 46.08L32.2497 46.8199C32.8657 47.38 33.4502 47.8367 34.0009 48.1733L34.5223 47.32ZM32.9223 46.08L33.5808 45.3274C32.5439 44.4201 32.0023 43.2015 32.0023 41.56H31.0023H30.0023C30.0023 43.7052 30.7408 45.4999 32.2638 46.8326L32.9223 46.08ZM31.0023 41.56H32.0023C32.0023 39.8307 32.4663 38.4465 33.3448 37.3427L32.5623 36.72L31.7799 36.0973C30.5784 37.6069 30.0023 39.4493 30.0023 41.56H31.0023ZM32.5623 36.72L33.3484 37.3382C34.9809 35.2625 37.4557 34.16 40.9623 34.16V33.16V32.16C37.0024 32.16 33.8771 33.4308 31.7763 36.1018L32.5623 36.72ZM40.9623 33.16V34.16C42.8069 34.16 44.2932 34.5212 45.468 35.1893L45.9623 34.32L46.4566 33.4507C44.9115 32.5721 43.0644 32.16 40.9623 32.16V33.16ZM45.9623 34.32L45.4811 35.1966C46.5842 35.8022 47.0023 36.5383 47.0023 37.44H48.0023H49.0023C49.0023 35.6751 48.0605 34.3311 46.4436 33.4434L45.9623 34.32ZM48.0023 37.44H47.0023C47.0023 38.1911 46.7896 38.7474 46.4098 39.1815L47.1623 39.84L47.9149 40.4985C48.6551 39.6526 49.0023 38.6089 49.0023 37.44H48.0023ZM47.1623 39.84L46.3941 39.1998C46.0561 39.6055 45.6472 39.8 45.0823 39.8V40.8V41.8C46.2241 41.8 47.202 41.3545 47.9306 40.4802L47.1623 39.84ZM45.0823 40.8V39.8C44.8191 39.8 44.5448 39.7479 44.2537 39.6315L43.8823 40.56L43.511 41.4885C44.0199 41.6921 44.5456 41.8 45.0823 41.8V40.8ZM43.8823 40.56L44.2763 39.6409C44.1948 39.606 44.2121 39.5951 44.2517 39.6461C44.2725 39.6728 44.2924 39.708 44.306 39.7488C44.3194 39.789 44.3223 39.8216 44.3223 39.84H43.3223H42.3223C42.3223 40.2099 42.4356 40.5688 42.673 40.8739C42.8993 41.1649 43.1965 41.354 43.4884 41.4791L43.8823 40.56ZM60.673 45.56L60.0848 46.3687V46.3687L60.673 45.56ZM63.793 44.8L64.5965 45.3952L63.793 44.8ZM64.673 42.64L63.6791 42.5296L63.6771 42.5478L63.6757 42.5661L64.673 42.64ZM64.793 41.56L65.7869 41.6704L65.793 41.6154V41.56H64.793ZM64.313 38.96L63.3822 39.3257L63.3902 39.3461L63.3992 39.3661L64.313 38.96ZM63.273 37.32L62.5907 38.0511L62.6041 38.0636L62.618 38.0757L63.273 37.32ZM61.873 36.48L61.5016 37.4085L61.5219 37.4166L61.5426 37.4239L61.873 36.48ZM57.993 36.32L58.2751 37.2794L58.3007 37.2719L58.3258 37.263L57.993 36.32ZM57.233 36.72L56.3045 36.3486L56.2643 36.449L56.2466 36.5556L57.233 36.72ZM57.193 36.96L56.2066 36.7956L56.1985 36.8443L56.1952 36.8935L57.193 36.96ZM56.953 53.96L55.9536 53.9989L55.9543 54.0119L56.953 53.96ZM57.233 58.72L56.2355 58.7912L56.2364 58.8042L56.2377 58.8171L57.233 58.72ZM55.633 62.12L55.9556 63.0665L55.633 62.12ZM51.473 61.76L50.5549 61.3636L50.5268 61.4286L50.5082 61.4969L51.473 61.76ZM51.073 35.56L51.8032 34.8768L51.7919 34.8647L51.7801 34.8529L51.073 35.56ZM51.393 34.48L50.9224 33.5976L50.9095 33.6045L50.8968 33.6118L51.393 34.48ZM54.673 33.76L54.8206 34.749L54.8278 34.748L54.835 34.7468L54.673 33.76ZM67.433 35.88L66.6977 36.5578L66.7034 36.5639L67.433 35.88ZM67.873 48.12L67.0744 47.518L67.0685 47.526L67.873 48.12ZM60.833 50.36L60.4943 51.3009L60.833 50.36ZM59.153 46.08L60.0814 46.4514L60.0845 46.4437L60.0875 46.436L59.153 46.08ZM60.073 45.24V46.24C60.0048 46.24 59.951 46.2317 59.9164 46.2246C59.8811 46.2174 59.8557 46.2093 59.8419 46.2045C59.8165 46.1956 59.8116 46.1913 59.8324 46.2024C59.8511 46.2124 59.8819 46.2302 59.9263 46.259C59.9701 46.2874 60.0227 46.3236 60.0848 46.3687L60.673 45.56L61.2611 44.7513C61.0964 44.6314 60.9311 44.5217 60.7736 44.4376C60.657 44.3755 60.3915 44.24 60.073 44.24V45.24ZM60.673 45.56L60.0848 46.3687C60.5253 46.6891 61.034 46.88 61.593 46.88V45.88V44.88C61.5119 44.88 61.4073 44.8576 61.2611 44.7513L60.673 45.56ZM61.593 45.88V46.88H61.633V45.88V44.88H61.593V45.88ZM61.633 45.88V46.88C62.852 46.88 63.872 46.3734 64.5965 45.3952L63.793 44.8L62.9894 44.2048C62.6473 44.6666 62.2272 44.88 61.633 44.88V45.88ZM63.793 44.8L64.5965 45.3952C65.2153 44.5598 65.5999 43.6632 65.6702 42.7139L64.673 42.64L63.6757 42.5661C63.6394 43.0567 63.4373 43.6002 62.9894 44.2048L63.793 44.8ZM64.673 42.64L65.6669 42.7504L65.7869 41.6704L64.793 41.56L63.7991 41.4496L63.6791 42.5296L64.673 42.64ZM64.793 41.56H65.793C65.793 40.4452 65.6174 39.4327 65.2268 38.5539L64.313 38.96L63.3992 39.3661C63.6486 39.9273 63.793 40.6481 63.793 41.56H64.793ZM64.313 38.96L65.2437 38.5943C64.9192 37.7682 64.4969 37.0574 63.9279 36.5643L63.273 37.32L62.618 38.0757C62.849 38.2759 63.1201 38.6584 63.3822 39.3257L64.313 38.96ZM63.273 37.32L63.9553 36.5889C63.4506 36.1179 62.8631 35.7671 62.2033 35.5361L61.873 36.48L61.5426 37.4239C61.9495 37.5663 62.2953 37.7754 62.5907 38.0511L63.273 37.32ZM61.873 36.48L62.2444 35.5515C61.4549 35.2357 60.6217 35.08 59.753 35.08V36.08V37.08C60.3776 37.08 60.9577 37.1909 61.5016 37.4085L61.873 36.48ZM59.753 36.08V35.08C58.9703 35.08 58.2596 35.1654 57.6601 35.377L57.993 36.32L58.3258 37.263C58.633 37.1545 59.0956 37.08 59.753 37.08V36.08ZM57.993 36.32L57.7108 35.3606C57.4559 35.4356 57.2079 35.5242 56.9972 35.6351C56.838 35.7189 56.4729 35.9276 56.3045 36.3486L57.233 36.72L58.1614 37.0914C58.0964 37.254 58.0016 37.3442 57.9666 37.3746C57.9285 37.4078 57.9083 37.4157 57.9287 37.4049C57.9462 37.3957 57.9824 37.3787 58.0435 37.3556C58.1036 37.3329 58.1801 37.3073 58.2751 37.2794L57.993 36.32ZM57.233 36.72L56.2466 36.5556L56.2066 36.7956L57.193 36.96L58.1794 37.1244L58.2194 36.8844L57.233 36.72ZM57.193 36.96L56.1952 36.8935C55.9541 40.5101 55.833 43.7596 55.833 46.64H56.833H57.833C57.833 43.8137 57.9519 40.6099 58.1908 37.0265L57.193 36.96ZM56.833 46.64H55.833C55.833 49.4752 55.8731 51.9288 55.9537 53.9989L56.953 53.96L57.9522 53.9211C57.8729 51.8845 57.833 49.4581 57.833 46.64H56.833ZM56.953 53.96L55.9543 54.0119C56.0611 56.0673 56.1548 57.6616 56.2355 58.7912L57.233 58.72L58.2304 58.6488C58.1511 57.5384 58.0582 55.9593 57.9516 53.9081L56.953 53.96ZM57.233 58.72L56.2377 58.8171C56.2909 59.3628 56.3306 59.7828 56.3569 60.0785C56.3859 60.4047 56.393 60.5231 56.393 60.52H57.393H58.393C58.393 60.3495 58.3307 59.6735 58.2282 58.6229L57.233 58.72ZM57.393 60.52H56.393C56.393 60.5342 56.3912 60.5423 56.3846 60.5558C56.3761 60.5731 56.3505 60.6162 56.2803 60.6801C56.1291 60.8175 55.8326 60.9954 55.3103 61.1735L55.633 62.12L55.9556 63.0665C56.6067 62.8446 57.1901 62.5559 57.6256 62.1599C58.0844 61.7429 58.393 61.1884 58.393 60.52H57.393ZM55.633 62.12L55.3103 61.1735C54.2324 61.5409 53.1813 61.72 52.153 61.72V62.72V63.72C53.418 63.72 54.6868 63.4991 55.9556 63.0665L55.633 62.12ZM52.153 62.72V61.72C52.0586 61.72 51.9992 61.7139 51.9674 61.7086C51.9329 61.7029 51.9521 61.7015 52.0002 61.7256C52.0521 61.7516 52.1512 61.8146 52.235 61.9403C52.323 62.0723 52.353 62.2117 52.353 62.32H51.353H50.353C50.353 62.5617 50.4163 62.8177 50.5709 63.0497C50.7214 63.2754 50.9205 63.4218 51.1058 63.5144C51.448 63.6856 51.8352 63.72 52.153 63.72V62.72ZM51.353 62.32H52.353C52.353 62.3719 52.3475 62.4009 52.3494 62.3883C52.3504 62.382 52.3535 62.3635 52.3608 62.3295C52.3754 62.2615 52.4001 62.1611 52.4377 62.0231L51.473 61.76L50.5082 61.4969C50.4658 61.6522 50.4306 61.7919 50.4052 61.9105C50.3851 62.0042 50.353 62.1634 50.353 62.32H51.353ZM51.473 61.76L52.391 62.1564C52.5839 61.7099 52.7051 61.0095 52.799 60.1914C52.8976 59.3311 52.9781 58.2101 53.0419 56.8364C53.1696 54.0868 53.233 50.2722 53.233 45.4H52.233H51.233C51.233 50.2611 51.1696 54.0399 51.044 56.7436C50.9812 58.0966 50.9033 59.1672 50.812 59.9636C50.7158 60.8022 50.6154 61.2234 50.5549 61.3636L51.473 61.76ZM52.233 45.4H53.233C53.233 42.5181 53.1361 40.2199 52.9361 38.5229C52.8362 37.6756 52.7077 36.9517 52.5428 36.3682C52.3864 35.8143 52.1647 35.2632 51.8032 34.8768L51.073 35.56L50.3427 36.2432C50.3424 36.2429 50.3527 36.2539 50.3711 36.2826C50.3893 36.3111 50.4127 36.3526 50.4398 36.4103C50.4948 36.5274 50.5558 36.6913 50.6181 36.9118C50.7433 37.3549 50.8564 37.9644 50.9498 38.7571C51.1365 40.3401 51.233 42.5485 51.233 45.4H52.233ZM51.073 35.56L51.7801 34.8529C51.7569 34.8297 51.7685 34.8351 51.7874 34.8728C51.8085 34.9151 51.833 34.9872 51.833 35.08H50.833H49.833C49.833 35.5988 50.0969 35.9981 50.3659 36.2671L51.073 35.56ZM50.833 35.08H51.833C51.833 35.3363 51.7041 35.4722 51.704 35.4723C51.6993 35.4774 51.7086 35.4666 51.7418 35.4421C51.7743 35.4181 51.822 35.3866 51.8891 35.3482L51.393 34.48L50.8968 33.6118C50.6668 33.7432 50.4313 33.9048 50.2419 34.1077C50.0552 34.3077 49.833 34.637 49.833 35.08H50.833ZM51.393 34.48L51.8636 35.3624C51.9283 35.3278 52.1772 35.2375 52.7274 35.1167C53.2428 35.0036 53.9379 34.8808 54.8206 34.749L54.673 33.76L54.5254 32.771C53.6214 32.9059 52.8765 33.0364 52.2986 33.1633C51.7554 33.2825 51.2576 33.4189 50.9224 33.5976L51.393 34.48ZM54.673 33.76L54.835 34.7468C56.5629 34.4631 58.4017 34.32 60.353 34.32V33.32V32.32C58.3043 32.32 56.3564 32.4702 54.511 32.7732L54.673 33.76ZM60.353 33.32V34.32C63.3237 34.32 65.3739 35.1218 66.6977 36.5578L67.433 35.88L68.1682 35.2022C66.3453 33.2248 63.6756 32.32 60.353 32.32V33.32ZM67.433 35.88L66.7034 36.5639C68.1269 38.0823 68.833 39.8766 68.833 42H69.833H70.833C70.833 39.3767 69.9391 37.091 68.1625 35.1961L67.433 35.88ZM69.833 42H68.833C68.833 44.1481 68.2395 45.9725 67.0744 47.518L67.873 48.12L68.6715 48.722C70.1197 46.8008 70.833 44.5452 70.833 42H69.833ZM67.873 48.12L67.0685 47.526C65.9691 49.0148 64.5824 49.72 62.833 49.72V50.72V51.72C65.2435 51.72 67.2168 50.6919 68.6774 48.714L67.873 48.12ZM62.833 50.72V49.72C62.2889 49.72 61.7366 49.6225 61.1717 49.4191L60.833 50.36L60.4943 51.3009C61.2627 51.5775 62.0437 51.72 62.833 51.72V50.72ZM60.833 50.36L61.1717 49.4191C60.6693 49.2383 60.3593 48.9867 60.165 48.6953C59.9669 48.3982 59.833 47.9747 59.833 47.36H58.833H57.833C57.833 48.2653 58.0323 49.1018 58.5009 49.8047C58.9733 50.5133 59.6633 51.0017 60.4943 51.3009L60.833 50.36ZM58.833 47.36H59.833C59.833 47.2309 59.8839 46.9454 60.0814 46.4514L59.153 46.08L58.2245 45.7086C57.9954 46.2813 57.833 46.8491 57.833 47.36H58.833ZM59.153 46.08L60.0875 46.436C60.1228 46.3433 60.1553 46.2799 60.1807 46.2389C60.206 46.198 60.2202 46.1858 60.2172 46.1885C60.2127 46.1926 60.1932 46.2086 60.1588 46.2222C60.1238 46.236 60.0924 46.24 60.073 46.24V45.24V44.24C59.0595 44.24 58.4933 45.0027 58.2185 45.724L59.153 46.08Z" fill="#D8D3CC" mask="url(#path-2-inside-1_1_549)"/>
</svg>
